<svg width="46" height="46" viewBox="0 0 46 46" fill="none" xmlns="http://www.w3.org/2000/svg">
<path d="M29.9852 12.2667H16.1C15.163 12.2667 14.3963 13.0334 14.3963 13.9704V32.5408C14.3963 33.4778 15.163 34.2445 16.1 34.2445H29.9852C30.9222 34.2445 31.6889 33.4778 31.6889 32.5408V13.9704C31.6889 13.0334 30.837 12.2667 29.9852 12.2667ZM28.537 28.3667H17.5482V26.663H28.6222L28.537 28.3667ZM28.537 23.7667H17.5482V22.063H28.6222L28.537 23.7667ZM28.537 19.1667H17.5482V17.463H28.6222L28.537 19.1667Z" fill="#0662AD"/>
<g opacity="0.1">
<path d="M23 46C16.8667 46 11.0741 43.6148 6.72963 39.2704C2.47037 34.9259 0 29.1333 0 23C0 16.8667 2.38519 11.0741 6.72963 6.72963C11.0741 2.47037 16.8667 0 23 0C29.1333 0 34.9259 2.38519 39.2704 6.72963C48.2148 15.6741 48.2148 30.2407 39.2704 39.1852C34.9259 43.5296 29.1333 46 23 46ZM23 5.28148C18.2296 5.28148 13.8 7.15556 10.4778 10.4778C7.07037 13.8 5.1963 18.2296 5.1963 23C5.1963 27.7704 7.07037 32.2 10.3926 35.5222C13.7148 38.8444 18.2296 40.7185 22.9148 40.7185C27.6852 40.7185 32.1148 38.8444 35.437 35.5222C42.337 28.6222 42.337 17.2926 35.437 10.3926C32.2 7.07037 27.7704 5.28148 23 5.28148Z" fill="#0061AE"/>
</g>
</svg>
